<?xml version="1.0" standalone="no"?>
<!DOCTYPE svg PUBLIC "-//W3C//DTD SVG 20010904//EN"
 "http://www.w3.org/TR/2001/REC-SVG-20010904/DTD/svg10.dtd">
<svg version="1.0" xmlns="http://www.w3.org/2000/svg"
 width="300.000000pt" height="167.000000pt" viewBox="0 0 300.000000 167.000000"
 preserveAspectRatio="xMidYMid meet">
<metadata>
Created by potrace 1.10, written by Peter Selinger 2001-2011
</metadata>
<g transform="translate(0.000000,167.000000) scale(0.100000,-0.100000)"
fill="#000000" stroke="none">
<path d="M1990 1489 c-21 -23 -32 -46 -36 -80 -6 -42 -9 -47 -24 -39 -23 12
-34 0 -13 -15 9 -7 16 -26 16 -44 0 -41 38 -71 62 -51 19 16 19 47 0 80 -26
46 -19 96 21 140 44 49 20 57 -26 9z"/>
<path d="M2051 1492 c-19 -36 -12 -65 25 -103 25 -26 37 -48 41 -78 6 -46 29
-56 39 -17 8 32 -13 96 -31 96 -22 0 -57 52 -51 75 3 11 1 26 -3 34 -7 11 -11
9 -20 -7z"/>
<path d="M2163 1372 c29 -32 57 -106 57 -152 0 -44 -4 -50 -93 -145 l-93 -99
70 -91 c39 -50 100 -130 135 -178 35 -48 66 -85 69 -82 7 6 -49 87 -152 220
-47 61 -86 113 -86 117 0 4 31 40 69 82 88 94 103 123 100 189 -3 51 -37 133
-62 149 -22 14 -30 8 -14 -10z"/>
<path d="M1880 1349 c0 -18 -15 -40 -50 -73 l-50 -47 -277 0 c-314 1 -307 2
-342 -76 -62 -135 -73 -155 -81 -147 -5 5 -32 49 -60 98 -28 49 -59 95 -68
103 -19 14 -185 17 -217 3 -13 -6 19 -9 90 -9 l110 -1 75 -135 c41 -74 77
-134 80 -134 3 0 32 59 65 132 l61 132 152 3 c90 1 152 -1 152 -7 0 -5 -36
-93 -80 -196 -91 -212 -100 -238 -77 -229 8 3 17 15 20 27 10 42 145 332 155
332 6 0 47 -46 92 -102 69 -87 80 -105 71 -122 -6 -10 -14 -21 -18 -23 -13 -5
-95 -108 -86 -108 4 0 40 35 80 78 l72 79 -110 136 -109 137 144 0 c136 0 145
1 151 20 3 11 22 32 40 46 42 32 51 57 31 86 l-16 22 0 -25z"/>
<path d="M710 1181 c0 -7 44 -90 97 -184 53 -95 119 -212 146 -262 28 -49 60
-105 73 -123 l22 -34 -27 -41 c-35 -53 -98 -170 -74 -138 10 14 40 56 66 94
27 38 50 67 52 65 3 -2 33 -44 68 -93 63 -87 64 -90 40 -93 -14 -2 -33 4 -42
12 -24 22 -126 22 -135 1 -3 -8 -17 -15 -30 -15 -18 0 -24 -4 -20 -15 8 -21
31 -19 61 5 32 25 83 26 115 1 34 -27 55 -29 72 -6 13 18 15 19 33 3 13 -12
40 -17 107 -19 91 -2 104 3 119 45 2 6 14 -1 26 -17 21 -26 27 -27 110 -27 79
0 90 2 109 23 18 20 22 34 20 88 l-2 64 -3 -55 c-6 -81 -18 -90 -123 -90 -106
0 -120 10 -120 87 0 74 20 88 121 85 44 -1 90 -7 102 -12 21 -11 21 -10 -2 9
-19 17 -37 21 -103 21 -73 0 -81 -2 -103 -26 -19 -20 -25 -38 -25 -70 0 -24
-4 -44 -10 -44 -5 0 -10 -11 -10 -25 l0 -25 -110 0 -110 0 0 85 0 85 30 0 c30
0 30 0 30 -60 l0 -60 78 2 77 2 -67 3 -68 4 0 39 c0 58 -15 90 -43 90 -38 0
-47 -19 -47 -99 l0 -75 -31 49 c-18 28 -47 69 -67 93 l-35 43 52 109 c64 134
221 483 221 490 0 3 -27 3 -61 2 l-60 -4 -36 -76 c-20 -43 -50 -110 -68 -150
l-32 -72 -84 150 -83 150 -84 0 c-66 0 -82 -3 -74 -12 23 -30 293 -541 287
-546 -10 -10 -20 8 -170 283 -141 260 -175 315 -175 286z m204 -60 c8 -9 38
-61 66 -116 29 -55 66 -113 83 -129 l31 -29 33 38 c18 21 31 40 29 42 -8 8 82
205 98 215 18 13 46 9 46 -6 0 -7 -22 -58 -48 -112 -27 -55 -59 -130 -72 -169
-12 -38 -28 -83 -35 -100 -8 -16 -22 -51 -34 -77 -11 -27 -24 -48 -29 -48 -5
0 -58 96 -117 213 -59 116 -116 227 -127 245 -11 18 -18 38 -15 45 7 18 72 10
91 -12z"/>
<path d="M1952 1110 c-32 -36 -64 -74 -72 -85 -29 -40 38 27 82 81 l43 54 68
0 69 0 -32 -42 -33 -43 47 48 c25 26 46 49 46 50 0 1 -36 2 -81 2 l-80 1 -57
-66z"/>
<path d="M1345 1088 c-32 -70 -185 -415 -202 -455 -4 -10 11 -13 56 -13 34 0
61 4 61 9 0 5 50 125 110 267 61 142 110 262 110 266 0 4 -22 8 -49 8 l-48 0
-38 -82z m41 -74 c-29 -65 -59 -138 -66 -162 -6 -24 -24 -78 -41 -121 -30 -79
-59 -108 -93 -95 -18 7 -5 47 49 149 70 131 93 180 109 228 22 65 53 124 68
130 31 11 25 -18 -26 -129z"/>
<path d="M1607 1146 c10 -13 53 -70 96 -126 l79 -101 -84 -89 -83 -88 -141 -1
-140 -1 -22 -53 c-12 -29 -22 -56 -22 -60 0 -4 99 -5 220 -3 l220 4 71 96 c39
53 74 96 77 95 4 0 40 -45 80 -100 l72 -99 55 0 c30 0 55 2 55 5 0 6 -165 221
-313 408 l-108 137 -66 0 -65 0 19 -24z m112 -24 c38 -42 61 -71 61 -78 0 -4
11 -17 24 -29 13 -12 31 -33 40 -48 10 -14 69 -90 131 -169 63 -79 110 -147
105 -151 -18 -19 -53 8 -111 89 -34 47 -69 89 -78 94 -22 11 -47 -10 -103 -91
-26 -36 -54 -71 -63 -79 -14 -11 -60 -15 -206 -17 -202 -2 -205 -1 -179 48 10
17 22 19 145 19 l135 0 75 71 c41 39 84 87 96 106 l21 34 -36 52 c-20 29 -54
74 -76 100 -22 27 -40 55 -40 63 0 23 31 16 59 -14z"/>
<path d="M2848 910 c-28 -15 -39 -28 -44 -54 -3 -20 -1 -42 6 -53 9 -14 10
-15 6 -1 -2 9 2 22 10 28 19 17 18 31 -2 23 -14 -5 -15 -3 -5 15 13 25 80 38
113 22 21 -10 21 -10 6 3 -22 17 -23 26 -4 23 8 -1 24 -13 36 -26 12 -14 19
-19 15 -12 -4 7 -2 19 4 26 26 31 -86 35 -141 6z"/>
<path d="M2870 827 c0 -7 5 -18 12 -25 7 -7 8 -12 2 -12 -6 0 -15 5 -21 11 -7
7 -12 6 -16 -5 -5 -11 0 -16 13 -16 13 0 22 -9 26 -26 8 -32 -2 -98 -16 -102
-6 -2 -15 -12 -20 -23 -8 -15 -7 -17 5 -13 8 4 15 10 15 14 0 8 39 23 53 21 4
-1 1 12 -8 28 -19 37 -19 45 0 37 11 -4 15 1 15 19 0 17 -6 25 -17 26 -15 0
-15 2 2 9 11 5 14 9 8 9 -7 1 -13 6 -13 11 0 6 -9 19 -20 30 -13 13 -20 15
-20 7z"/>
<path d="M208 762 c-11 -12 -14 -22 -8 -32 5 -8 7 -17 4 -21 -2 -4 5 -5 16 -2
20 5 20 6 3 26 -10 11 -12 17 -5 13 7 -4 20 -2 29 6 12 9 15 9 9 1 -5 -9 0
-13 16 -13 21 -1 22 -2 6 -14 -18 -14 -14 -26 9 -26 8 0 13 12 13 30 0 47 -57
67 -92 32z"/>
<path d="M1811 695 l-63 -85 -309 0 c-259 0 -309 -2 -309 -14 0 -11 21 -14
103 -14 56 -1 196 -1 312 -2 l209 -2 21 28 c11 15 36 50 56 78 19 28 40 51 46
51 6 0 35 -34 65 -75 l53 -75 149 0 c111 0 150 3 153 13 4 9 -30 12 -144 12
l-148 0 -64 85 c-35 47 -64 85 -65 85 -1 0 -30 -38 -65 -85z"/>
<path d="M300 691 c-37 -10 -8 -23 35 -15 19 3 35 10 35 15 0 10 -33 10 -70 0z"/>
<path d="M145 655 c-31 -29 -34 -65 -5 -65 11 0 20 -5 20 -12 0 -6 2 -9 5 -6
3 3 -1 18 -10 34 -15 29 -15 29 22 46 21 10 36 18 33 19 -3 0 -13 2 -22 4 -9
2 -29 -8 -43 -20z"/>
<path d="M355 658 c11 -7 29 -14 39 -15 30 -5 33 -13 5 -13 -22 -1 -23 -2 -6
-14 23 -17 22 -24 -5 -29 -23 -4 -23 -4 1 -6 15 -1 21 -6 18 -15 -6 -15 9 -16
31 -3 6 5 33 5 60 2 117 -15 118 -15 97 -5 -11 5 -32 9 -47 9 -55 2 -128 23
-128 37 0 11 21 13 115 11 63 -2 115 0 115 5 0 4 -41 8 -90 8 -71 0 -100 5
-132 20 -23 11 -53 20 -67 20 -25 -1 -25 -1 -6 -12z"/>
<path d="M281 606 c-10 -12 -6 -14 24 -14 33 0 34 1 18 14 -23 17 -28 17 -42
0z"/>
<path d="M2848 567 c4 -18 7 -50 7 -72 0 -22 6 -44 13 -48 7 -5 10 -12 7 -18
-4 -5 -2 -9 4 -9 12 0 11 99 -1 106 -4 3 -8 18 -8 34 0 15 -7 30 -15 33 -11 5
-13 0 -7 -26z"/>
<path d="M260 574 c0 -18 24 -34 51 -34 15 0 30 -6 32 -12 4 -9 6 -8 6 3 2 26
-19 40 -42 27 -16 -8 -23 -7 -34 8 -7 10 -13 13 -13 8z"/>
<path d="M743 548 c-6 -7 -10 -20 -10 -29 0 -19 108 -172 122 -173 15 -1 115
155 115 180 0 41 -74 49 -92 9 -6 -14 -16 -25 -21 -25 -5 0 -20 11 -33 25 -25
27 -65 33 -81 13z m77 -48 c14 -22 27 -40 30 -40 3 0 15 18 28 40 19 33 28 40
53 40 30 0 31 -1 17 -22 -67 -109 -94 -148 -99 -148 -6 0 -109 157 -109 166 0
2 12 4 28 4 21 0 33 -9 52 -40z"/>
<path d="M781 493 c13 -21 33 -53 45 -71 l22 -33 19 28 c55 77 73 113 59 113
-8 0 -27 -22 -43 -50 -15 -27 -30 -50 -33 -50 -3 0 -20 23 -38 50 -37 58 -65
69 -31 13z"/>
<path d="M1754 546 c-13 -10 -14 -26 -6 -105 10 -96 19 -118 46 -108 26 10 19
37 -9 37 -25 0 -25 1 -25 85 l0 85 38 1 c89 3 178 -4 192 -14 8 -6 7 -2 -3 9
-15 16 -32 19 -118 20 -58 0 -106 -4 -115 -10z"/>
<path d="M2139 527 l25 -27 23 22 c30 28 29 34 -3 13 -24 -16 -27 -16 -47 2
-18 14 -17 13 2 -10z"/>
<path d="M155 530 c-4 -6 -11 -7 -17 -4 -8 5 -9 -1 -5 -17 4 -13 7 -30 7 -38
0 -7 6 -11 14 -8 9 4 17 -4 21 -21 4 -15 10 -21 12 -14 3 7 -3 24 -12 38 -10
16 -14 35 -11 50 7 25 2 32 -9 14z"/>
<path d="M1008 458 c-26 -40 -45 -74 -43 -77 8 -7 34 20 62 65 15 24 31 44 34
44 3 0 23 -25 45 -55 21 -30 45 -55 52 -55 15 0 13 3 -47 88 -24 34 -47 62
-50 62 -3 0 -27 -33 -53 -72z"/>
<path d="M1240 455 l0 -75 90 0 c53 0 90 4 90 10 0 6 -32 10 -75 10 l-75 0 0
65 c0 51 -3 65 -15 65 -12 0 -15 -15 -15 -75z"/>
<path d="M1502 518 c-7 -7 -12 -35 -12 -63 0 -28 5 -56 12 -63 7 -7 42 -12 88
-12 96 0 116 15 105 82 -4 24 -12 49 -17 56 -14 16 -159 17 -176 0z m146 -14
c20 -6 23 -12 20 -53 l-3 -46 -75 0 -75 0 -3 47 c-3 42 -1 47 20 51 37 7 91 7
116 1z"/>
<path d="M1530 455 c0 -27 4 -35 18 -35 14 0 15 2 2 10 -24 15 2 32 46 28 30
-2 39 -7 38 -20 -1 -10 2 -18 7 -18 5 0 9 16 9 35 l0 35 -60 0 -60 0 0 -35z"/>
<path d="M1780 455 c0 -43 4 -75 10 -75 6 0 10 28 10 65 l0 66 78 -3 c75 -3
77 -4 77 -28 0 -24 -2 -25 -65 -24 -36 1 -49 -1 -29 -3 25 -3 47 -15 69 -39
19 -18 41 -34 49 -34 11 0 9 6 -8 23 -19 21 -20 25 -6 37 18 15 20 61 3 78 -8
8 -45 12 -100 12 l-88 0 0 -75z"/>
<path d="M2040 517 c0 -8 9 -22 20 -32 26 -24 25 -28 -9 -66 -38 -41 -52 -31
-47 34 2 29 2 40 -1 25 -2 -14 -11 -32 -19 -39 -13 -10 -12 -15 7 -36 13 -12
26 -23 31 -23 5 0 29 19 54 42 l45 41 -33 34 c-34 35 -48 41 -48 20z"/>
<path d="M2109 496 l33 -34 -42 -38 c-52 -47 -34 -58 22 -14 l40 32 32 -31
c17 -17 41 -31 51 -31 15 0 11 9 -23 43 l-42 43 30 29 c16 16 32 26 35 23 3
-2 -6 -15 -20 -28 l-25 -24 42 -43 c23 -24 47 -43 52 -43 5 0 -4 15 -22 33
-37 39 -39 48 -12 72 29 26 25 40 -12 42 -23 2 -40 -5 -58 -22 l-26 -25 -24
25 c-13 14 -33 25 -44 25 -17 0 -16 -4 13 -34z"/>
<path d="M12 479 c2 -6 7 -10 11 -10 4 1 19 -10 33 -24 14 -14 29 -25 34 -25
5 0 21 -5 36 -10 l26 -10 -26 -27 c-22 -22 -32 -56 -23 -80 3 -11 -55 -23 -80
-17 -17 5 -23 2 -23 -10 0 -23 78 -22 95 0 8 11 19 14 33 10 12 -4 20 -10 18
-14 -2 -4 20 -7 50 -7 30 0 54 3 54 6 0 3 27 9 61 12 65 6 75 10 64 26 -4 7
-12 8 -23 2 -9 -5 -61 -12 -114 -16 -120 -8 -125 1 -42 82 30 30 53 58 50 61
-4 3 -13 -4 -22 -16 -16 -23 -44 -30 -44 -11 0 5 -4 7 -10 4 -5 -3 -10 -1 -10
6 0 7 -3 10 -6 6 -6 -5 -15 0 -49 31 -14 12 -78 42 -91 42 -3 0 -4 -5 -2 -11z"/>
<path d="M1810 480 c0 -6 28 -10 65 -10 37 0 65 4 65 10 0 6 -28 10 -65 10
-37 0 -65 -4 -65 -10z"/>
<path d="M1046 449 c-16 -23 -16 -24 4 -27 42 -7 51 1 31 27 l-18 24 -17 -24z"/>
<path d="M1820 417 c0 -21 4 -23 31 -19 24 4 37 -2 64 -28 24 -23 40 -31 61
-28 42 5 43 28 0 28 -28 0 -41 7 -63 35 -22 27 -35 35 -60 35 -28 0 -33 -4
-33 -23z"/>
<path d="M2125 399 c-21 -20 -40 -29 -63 -29 -23 0 -32 -4 -30 -12 8 -24 56
-20 92 7 l34 26 30 -26 c34 -28 86 -34 96 -10 4 12 -3 15 -31 15 -27 0 -45 8
-68 29 l-30 29 -30 -29z"/>
<path d="M286 396 c3 -7 0 -24 -5 -39 -8 -21 -17 -26 -52 -29 -27 -2 -44 -8
-46 -18 -3 -11 -2 -11 4 -3 5 8 14 9 23 3 9 -5 19 -5 27 2 7 6 22 8 33 5 11
-3 21 -1 21 4 1 5 2 15 3 22 2 16 26 10 43 -11 7 -9 13 -12 13 -5 0 6 -12 21
-26 32 -14 11 -23 24 -20 30 3 5 -1 11 -9 14 -9 4 -12 1 -9 -7z"/>
<path d="M340 406 c0 -21 24 -86 32 -86 13 0 9 17 -12 57 -11 21 -20 34 -20
29z"/>
<path d="M2825 371 c-6 -11 12 -25 37 -26 26 -2 33 -12 20 -28 -10 -11 -4 -13
31 -7 23 3 49 10 56 14 8 5 17 3 22 -5 6 -10 9 -6 9 15 0 26 -2 28 -29 23 -15
-3 -50 1 -76 9 -57 17 -62 17 -70 5z"/>
<path d="M635 209 c4 -6 9 -8 12 -6 2 3 16 -1 30 -8 14 -7 33 -11 41 -7 11 4
6 9 -19 18 -43 16 -72 17 -64 3z"/>
<path d="M1663 175 c27 -26 108 -48 158 -42 28 4 51 1 58 -6 8 -8 11 -8 11 0
0 18 -11 22 -66 24 -27 1 -73 11 -103 21 -66 22 -77 23 -58 3z"/>
</g>
</svg>
